<svg fill="none" height="25" viewBox="0 0 25 25" width="25" xmlns="http://www.w3.org/2000/svg"><path d="m12.5 15.5v2m0-9v-2m0 0c.8284 0 1.5-.67157 1.5-1.5s-.6716-1.5-1.5-1.5-1.5.67157-1.5 1.5.6716 1.5 1.5 1.5zm8 14v-1c0-1.1046-.8954-2-2-2h-12c-1.10457 0-2 .8954-2 2v1zm-9-8.5c0 .5523-.4477 1-1 1-.55228 0-1-.4477-1-1s.44772-1 1-1c.5523 0 1 .4477 1 1zm4 0c0 .5523-.4477 1-1 1s-1-.4477-1-1 .4477-1 1-1 1 .4477 1 1zm-7 3.5h8c1.1046 0 2-.8954 2-2v-3c0-1.10457-.8954-2-2-2h-8c-1.10457 0-2 .89543-2 2v3c0 1.1046.89543 2 2 2z" stroke="#121923" stroke-width="1.2"/></svg>