<svg width="26" height="26" viewBox="0 0 26 26" fill="none" xmlns="http://www.w3.org/2000/svg">
<g clip-path="url(#clip0_160_239)">
<path d="M24.57 22.7835C19.175 17.3885 19.175 8.6102 24.57 3.2152L25.6295 2.1557C25.8678 1.91737 26 1.59995 26 1.26195C26 0.923953 25.8678 0.60762 25.6295 0.369286C25.1528 -0.108464 24.3219 -0.10738 23.8442 0.369286L22.7836 1.42879C17.3886 6.82379 8.60925 6.82379 3.21533 1.42879L2.15583 0.368203C1.91838 0.132361 1.5973 0 1.26263 0C0.927955 0 0.606867 0.132361 0.369417 0.368203C0.133574 0.605653 0.00121368 0.926741 0.00121368 1.26141C0.00121368 1.59608 0.133574 1.91717 0.369417 2.15462L1.42892 3.21412C6.82392 8.60912 6.82392 17.3874 1.42892 22.7824L0.3705 23.8419C0.131083 24.0802 0 24.3976 0 24.7356C0 25.0715 0.131083 25.39 0.369417 25.6283C0.84825 26.1082 1.68025 26.106 2.15692 25.6283L3.21533 24.5699C8.61033 19.1716 17.3886 19.1749 22.7847 24.5699L23.8442 25.6283C24.0825 25.8666 24.3999 25.9988 24.7368 25.9988C25.0748 25.9988 25.3923 25.8666 25.6295 25.6283C25.8678 25.39 26 25.0736 26 24.7356C26 24.3965 25.8678 24.0802 25.6295 23.8419L24.5711 22.7824L24.57 22.7835Z" fill="#D94402"/>
</g>
<defs>
<clipPath id="clip0_160_239">
<rect width="26" height="26" fill="white"/>
</clipPath>
</defs>
</svg>
